<svg width="92" height="122" viewBox="0 0 92 122" fill="none" xmlns="http://www.w3.org/2000/svg">
<rect width="92" height="122" rx="5" fill="#D9D9D9"/>
<path d="M31.3335 52.619C31.3335 50.6229 32.9778 49 35.0002 49H57.0002C59.0226 49 60.6668 50.6229 60.6668 52.619V70.7143C60.6668 72.7104 59.0226 74.3333 57.0002 74.3333H35.0002C32.9778 74.3333 31.3335 72.7104 31.3335 70.7143V52.619ZM49.8845 58.6414C49.6267 58.2682 49.2028 58.0476 48.7502 58.0476C48.2976 58.0476 47.8679 58.2682 47.6158 58.6414L42.6314 65.8568L41.1132 63.9851C40.8496 63.6628 40.4543 63.4762 40.0418 63.4762C39.6293 63.4762 39.2283 63.6628 38.9705 63.9851L35.3038 68.5089C34.9715 68.9161 34.9085 69.4759 35.1377 69.9452C35.3668 70.4146 35.8481 70.7143 36.3752 70.7143H55.6252C56.1351 70.7143 56.6049 70.4372 56.8397 69.9905C57.0746 69.5438 57.046 69.0065 56.7595 68.5938L49.8845 58.6414ZM37.7502 58.0476C38.4795 58.0476 39.179 57.7617 39.6947 57.2526C40.2104 56.7436 40.5002 56.0532 40.5002 55.3333C40.5002 54.6135 40.2104 53.9231 39.6947 53.414C39.179 52.905 38.4795 52.619 37.7502 52.619C37.0208 52.619 36.3213 52.905 35.8056 53.414C35.2899 53.9231 35.0002 54.6135 35.0002 55.3333C35.0002 56.0532 35.2899 56.7436 35.8056 57.2526C36.3213 57.7617 37.0208 58.0476 37.7502 58.0476Z" fill="#8D8D8D"/>
</svg>
